<?xml version="1.0" encoding="UTF-8"?>
<svg xmlns="http://www.w3.org/2000/svg" width="100" height="100" viewBox="0 0 100 100" fill="#fff">
    <title>Social Media Icon</title>
    <g transform="matrix(4.6436169,0,0,4.6436169,-16.775078,-24.285804)">
        <path d="m 20,19.5 a 3.48,3.48 0 0 0 -2.59,1.16 L 12.15,17.5 a 3.39,3.39 0 0 0 0,-3 l 5.26,-3.16 A 3.49,3.49 0 1 0 16.5,9 a 3.41,3.41 0 0 0 0.35,1.5 l -5.26,3.16 a 3.5,3.5 0 1 0 0,4.68 l 5.26,3.16 A 3.41,3.41 0 0 0 16.5,23 3.5,3.5 0 1 0 20,19.5 Z m 0,-13 A 2.5,2.5 0 1 1 17.5,9 2.5,2.5 0 0 1 20,6.5 Z M 9,18.5 A 2.5,2.5 0 1 1 11.5,16 2.5,2.5 0 0 1 9,18.5 Z m 11,7 A 2.5,2.5 0 1 1 22.5,23 2.5,2.5 0 0 1 20,25.5 Z" />
    </g>
</svg>
